<svg width="404" height="487" viewBox="0 0 404 487" fill="none" xmlns="http://www.w3.org/2000/svg">
<g filter="url(#filter0_b_881_3647)">
<path d="M404 445.4V41.6C404 27.0386 404 19.758 401.166 14.1962C398.673 9.30403 394.696 5.32654 389.804 2.83383C384.242 0 376.961 0 362.4 0H314.73C307.164 0 303.382 0 299.966 0.949297C295.556 2.17464 291.549 4.54213 288.347 7.81254C285.867 10.3462 284.042 13.659 280.39 20.2845L280.39 20.2848C276.739 26.9106 274.913 30.2234 272.433 32.7571C269.232 36.0275 265.224 38.395 260.815 39.6203C257.399 40.5696 253.616 40.5696 246.051 40.5696H158.486C149.945 40.5696 145.675 40.5696 141.834 39.3492C138.434 38.2693 135.293 36.5013 132.606 34.1553C129.57 31.5045 127.354 27.8537 122.923 20.5522L122.598 20.0174C118.167 12.7159 115.952 9.06514 112.916 6.41427C110.229 4.06832 107.088 2.30036 103.688 1.22037C99.8465 0 95.576 0 87.0351 0H41.6C27.0386 0 19.758 0 14.1962 2.83383C9.30403 5.32654 5.32654 9.30403 2.83383 14.1962C0 19.758 0 27.0386 0 41.6V445.4C0 459.961 0 467.242 2.83383 472.804C5.32654 477.696 9.30403 481.673 14.1962 484.166C19.758 487 27.0386 487 41.6 487H362.4C376.961 487 384.242 487 389.804 484.166C394.696 481.673 398.673 477.696 401.166 472.804C404 467.242 404 459.961 404 445.4Z" fill="white" fill-opacity="0.6"/>
</g>
<defs>
<filter id="filter0_b_881_3647" x="-11.8904" y="-11.8904" width="427.781" height="510.781" filterUnits="userSpaceOnUse" color-interpolation-filters="sRGB">
<feFlood flood-opacity="0" result="BackgroundImageFix"/>
<feGaussianBlur in="BackgroundImageFix" stdDeviation="5.94521"/>
<feComposite in2="SourceAlpha" operator="in" result="effect1_backgroundBlur_881_3647"/>
<feBlend mode="normal" in="SourceGraphic" in2="effect1_backgroundBlur_881_3647" result="shape"/>
</filter>
</defs>
</svg>
