<svg width="1314" height="868" viewBox="0 0 1314 868" fill="none" xmlns="http://www.w3.org/2000/svg">
<g filter="url(#filter0_b_21_288)">
<path d="M1314 875.4V73.6C1314 47.8376 1314 34.9564 1308.99 25.1164C1304.58 16.461 1297.54 9.42387 1288.88 5.0137C1279.04 0 1266.16 0 1240.4 0H856.109C842.786 0 836.125 0 830.108 1.66398C822.263 3.83331 815.135 8.04523 809.45 13.8698C805.089 18.3376 801.875 24.1721 795.447 35.8412C789.02 47.5102 785.806 53.3447 781.445 57.8125C775.76 63.6371 768.631 67.849 760.787 70.0183C754.769 71.6823 748.108 71.6823 734.786 71.6823H580.231C565.117 71.6823 557.56 71.6823 550.763 69.5224C544.747 67.6109 539.189 64.4819 534.435 60.3299C529.062 55.6383 525.143 49.1771 517.304 36.2547L516.802 35.4276C508.963 22.5052 505.044 16.044 499.672 11.3524C494.917 7.20045 489.36 4.07138 483.344 2.15992C476.546 0 468.989 0 453.875 0H73.6C47.8376 0 34.9564 0 25.1164 5.0137C16.461 9.42387 9.42387 16.461 5.0137 25.1164C0 34.9564 0 47.8376 0 73.6V875.4C0 901.162 0 914.044 5.0137 923.884C9.42387 932.539 16.461 939.576 25.1164 943.986C34.9564 949 47.8376 949 73.6 949H1240.4C1266.16 949 1279.04 949 1288.88 943.986C1297.54 939.576 1304.58 932.539 1308.99 923.884C1314 914.044 1314 901.162 1314 875.4Z" fill="white" fill-opacity="0.7"/>
</g>
<defs>
<filter id="filter0_b_21_288" x="-21" y="-21" width="1356" height="991" filterUnits="userSpaceOnUse" color-interpolation-filters="sRGB">
<feFlood flood-opacity="0" result="BackgroundImageFix"/>
<feGaussianBlur in="BackgroundImageFix" stdDeviation="10.5"/>
<feComposite in2="SourceAlpha" operator="in" result="effect1_backgroundBlur_21_288"/>
<feBlend mode="normal" in="SourceGraphic" in2="effect1_backgroundBlur_21_288" result="shape"/>
</filter>
</defs>
</svg>
