<svg width="1000" height="632" viewBox="0 0 1000 632" fill="none" xmlns="http://www.w3.org/2000/svg">
<g filter="url(#filter0_b_19_151)">
<path d="M0 73.6C0 47.8376 0 34.9564 5.0137 25.1164C9.42387 16.461 16.461 9.42387 25.1164 5.0137C34.9564 0 47.8376 0 73.6 0H254.344C267.876 0 274.642 0 280.693 1.97563C286.046 3.7236 290.97 6.58226 295.143 10.3646C299.858 14.6395 303.213 20.5154 309.923 32.2672L316.577 43.9217C323.287 55.6735 326.642 61.5494 331.357 65.8243C335.53 69.6066 340.454 72.4653 345.807 74.2132C351.858 76.1889 358.624 76.1889 372.156 76.1889H500.5H630.091C644.228 76.1889 651.296 76.1889 657.558 74.0596C663.097 72.1765 668.155 69.1014 672.376 65.0511C677.149 60.4716 680.402 54.1964 686.909 41.646L690.591 34.5428C697.098 21.9924 700.351 15.7172 705.124 11.1378C709.345 7.08751 714.403 4.01241 719.942 2.12924C726.204 0 733.272 0 747.409 0H926.4C952.162 0 965.044 0 974.884 5.0137C983.539 9.42387 990.576 16.461 994.986 25.1164C1000 34.9564 1000 47.8376 1000 73.6V558.4C1000 584.162 1000 597.044 994.986 606.884C990.576 615.539 983.539 622.576 974.884 626.986C965.044 632 952.162 632 926.4 632H73.6C47.8376 632 34.9564 632 25.1164 626.986C16.461 622.576 9.42387 615.539 5.0137 606.884C0 597.044 0 584.162 0 558.4V73.6Z" fill="white" fill-opacity="0.4"/>
<path d="M0.5 73.6C0.5 60.7105 0.500389 51.0735 1.12505 43.428C1.74924 35.7883 2.99425 30.1812 5.4592 25.3434C9.82144 16.7821 16.7821 9.82144 25.3434 5.4592C30.1812 2.99425 35.7883 1.74924 43.428 1.12505C51.0735 0.500389 60.7105 0.5 73.6 0.5H254.344C267.91 0.5 274.581 0.505865 280.538 2.45093C285.824 4.17705 290.687 6.99999 294.807 10.735C299.45 14.9438 302.762 20.7338 309.489 32.5151L316.143 44.1696L316.201 44.2716C322.855 55.9266 326.247 61.8663 331.022 66.1947C335.246 70.0243 340.231 72.9187 345.652 74.6885C351.778 76.6889 358.618 76.6889 372.038 76.6889H372.156H500.5H630.091H630.214C644.234 76.6889 651.379 76.6889 657.719 74.533C663.327 72.6263 668.448 69.5128 672.722 65.4119C677.554 60.7752 680.843 54.4324 687.295 41.9866L687.353 41.8762L691.035 34.773C697.558 22.1909 700.771 16.0071 705.47 11.4985C709.638 7.49892 714.633 4.46226 720.103 2.60262C726.268 0.506345 733.237 0.5 747.409 0.5H926.4C939.289 0.5 948.926 0.500389 956.572 1.12505C964.212 1.74924 969.819 2.99425 974.657 5.4592C983.218 9.82144 990.179 16.7821 994.541 25.3434C997.006 30.1812 998.251 35.7883 998.875 43.428C999.5 51.0735 999.5 60.7105 999.5 73.6V558.4C999.5 571.289 999.5 580.927 998.875 588.572C998.251 596.212 997.006 601.819 994.541 606.657C990.179 615.218 983.218 622.179 974.657 626.541C969.819 629.006 964.212 630.251 956.572 630.875C948.927 631.5 939.289 631.5 926.4 631.5H73.6C60.7105 631.5 51.0735 631.5 43.428 630.875C35.7883 630.251 30.1812 629.006 25.3434 626.541C16.7821 622.179 9.82144 615.218 5.4592 606.657C2.99425 601.819 1.74924 596.212 1.12505 588.572C0.500389 580.927 0.5 571.289 0.5 558.4V73.6Z" stroke="url(#paint0_linear_19_151)"/>
</g>
<defs>
<filter id="filter0_b_19_151" x="-71" y="-71" width="1142" height="774" filterUnits="userSpaceOnUse" color-interpolation-filters="sRGB">
<feFlood flood-opacity="0" result="BackgroundImageFix"/>
<feGaussianBlur in="BackgroundImageFix" stdDeviation="35.5"/>
<feComposite in2="SourceAlpha" operator="in" result="effect1_backgroundBlur_19_151"/>
<feBlend mode="normal" in="SourceGraphic" in2="effect1_backgroundBlur_19_151" result="shape"/>
</filter>
<linearGradient id="paint0_linear_19_151" x1="985" y1="516" x2="22.0001" y2="23.9997" gradientUnits="userSpaceOnUse">
<stop stop-color="white"/>
<stop offset="0.205" stop-color="#E2E2E2"/>
<stop offset="0.405" stop-color="white"/>
<stop offset="0.615" stop-color="#E2E2E2"/>
<stop offset="0.835" stop-color="white"/>
<stop offset="0.99" stop-color="#E2E2E2"/>
</linearGradient>
</defs>
</svg>
