<svg width="1265" height="872" viewBox="0 0 1265 872" fill="none" xmlns="http://www.w3.org/2000/svg">
<g filter="url(#filter0_b_235_1266)">
<path d="M0 73.6V798.4C0 824.162 0 837.044 5.0137 846.884C9.42387 855.539 16.461 862.576 25.1164 866.986C34.9564 872 47.8376 872 73.6 872H912.188C917.295 872 919.849 872 922 871.783C942.337 869.733 958.421 853.65 960.471 833.312C960.688 831.162 960.688 828.608 960.688 823.5C960.688 818.392 960.688 815.838 960.904 813.688C962.954 793.35 979.038 777.267 999.375 775.217C1001.53 775 1004.08 775 1009.19 775H1196.2C1220.28 775 1232.32 775 1241.52 770.313C1249.61 766.191 1256.19 759.613 1260.31 751.522C1265 742.323 1265 730.282 1265 706.2V73.6C1265 47.8376 1265 34.9564 1259.99 25.1164C1255.58 16.461 1248.54 9.42387 1239.88 5.0137C1230.04 0 1217.16 0 1191.4 0H973.825C960.429 0 953.731 0 947.729 1.94139C942.418 3.65921 937.525 6.46952 933.366 10.1916C928.665 14.398 925.29 20.1837 918.541 31.755L918.541 31.7555L911.147 44.4334L911.146 44.4338C904.397 56.0051 901.023 61.7908 896.322 65.9973C892.162 69.7193 887.27 72.5297 881.959 74.2475C875.957 76.1889 869.259 76.1889 855.863 76.1889H563.062H411.832C399.063 76.1889 392.679 76.1889 386.904 74.4029C381.793 72.822 377.05 70.2318 372.958 66.7854C368.334 62.892 364.884 57.5203 357.983 46.7768L346.829 29.4121C339.929 18.6686 336.478 13.2968 331.855 9.40343C327.762 5.95712 323.02 3.36686 317.909 1.78597C312.134 0 305.75 0 292.981 0H73.6C47.8376 0 34.9564 0 25.1164 5.0137C16.461 9.42387 9.42387 16.461 5.0137 25.1164C0 34.9564 0 47.8376 0 73.6Z" fill="white" fill-opacity="0.7"/>
</g>
<defs>
<filter id="filter0_b_235_1266" x="-71" y="-71" width="1407" height="1014" filterUnits="userSpaceOnUse" color-interpolation-filters="sRGB">
<feFlood flood-opacity="0" result="BackgroundImageFix"/>
<feGaussianBlur in="BackgroundImageFix" stdDeviation="35.5"/>
<feComposite in2="SourceAlpha" operator="in" result="effect1_backgroundBlur_235_1266"/>
<feBlend mode="normal" in="SourceGraphic" in2="effect1_backgroundBlur_235_1266" result="shape"/>
</filter>
</defs>
</svg>
